<svg xmlns="http://www.w3.org/2000/svg" xmlns:sodipodi="http://sodipodi.sourceforge.net/DTD/sodipodi-0.dtd" xmlns:inkscape="http://www.inkscape.org/namespaces/inkscape" sodipodi:docname="muscle-back.svg" inkscape:version="1.0beta2 (2b71d25, 2019-12-03)" viewBox="0 0 90.314 208.588" height="788.364" width="341.343"><sodipodi:namedview inkscape:window-maximized="0" inkscape:window-y="25" inkscape:window-x="15" inkscape:window-height="880" inkscape:window-width="1600" showgrid="false" inkscape:document-rotation="0" inkscape:current-layer="layer1" inkscape:document-units="mm" inkscape:cy="279.589" inkscape:cx="154.285" inkscape:zoom="1.08" inkscape:pageshadow="2" inkscape:pageopacity="0" borderopacity="1" bordercolor="#666666" pagecolor="#ffffff"/><g inkscape:groupmode="layer" inkscape:label="Back"><g fill="#999" inkscape:label="b"><path d="M43.962 91.798c.118-.83.296-1.177.236-1.592-.236-8.585-.414-17.03-.769-25.615-.118-2.285-.118-4.846-1.597-6.785-2.544-3.392-5.325-6.092-9.29-6.715-1.834-.277-3.786-.692-5.916-1.107.295 1.384.414 2.215.65 3.046 2.663 8.93 5.266 17.86 8.047 26.653.414 1.385 1.243 2.7 2.071 3.877 1.539 2.215 3.314 4.361 4.97 6.438.474.623.947 1.108 1.598 1.8zM63.783 50.26c-.77 0-1.302-.069-1.775 0-2.544.624-5.088 1.039-7.573 2.008-2.959 1.177-4.852 4.015-6.686 6.854-.355.554-.533 1.315-.592 2.077-.414 9.346-.77 18.692-1.124 28.038 0 .761.118 1.523.177 2.284.237.208.533.416.77.692.236-.623.354-1.315.71-1.8 1.42-2.007 3.017-3.946 4.437-6.022 1.065-1.523 2.308-3.185 2.9-4.916 2.366-6.992 4.437-14.123 6.626-21.184.71-2.7 1.36-5.192 2.13-8.03zM31.418 114.298c1.716-3.185 4.32-4.639 6.864-6.093.414-.207.828-.484 1.242-.761 1.894-1.385 2.426-2.838 1.953-5.47-.474-3.253-1.006-6.368-1.361-9.691-.414-3.531-.77-3.877-3.55-2.285-.06 0-.06.07-.119.07-5.384 3.115-7.928 10.176-6.33 18.068.414 1.87.828 3.67 1.301 6.162zM59.227 113.605c.414-2.838 1.124-5.953 1.302-9.138.473-6.992-2.544-12.807-7.751-15.023-1.775-.761-2.249-.415-2.485 1.731l-1.243 9.346c-.71 4.708-.296 5.538 3.373 7.961 2.307 1.385 4.437 3.254 6.804 5.123zM27.454 34.269c0 .138-.06.346-.06.484 3.906 0 5.977 2.63 7.456 6.438 1.657 4.5 3.727 8.793 6.923 12.046.473.485 1.005.9 1.715 1.523.178-.83.355-1.246.355-1.73-.059-4.362-.177-8.654-.355-13.015-.059-2.147-1.005-3.67-2.84-4.223-3.017-.9-5.976-1.87-9.052-2.562-1.184.139-2.663.83-4.142 1.039zM63.014 34.615c-.414-.277-.651-.416-.828-.485-4.616-1.523-8.817.346-13.017 2.077-1.539.623-2.249 1.938-2.308 3.808-.118 4.361-.237 8.653-.296 13.015 0 .484.119.969.237 1.8.592-.485 1.065-.693 1.36-1.108 1.48-1.938 3.137-3.877 4.38-6.092 1.42-2.63 2.662-5.47 3.786-8.377.947-2.285 2.426-3.738 4.497-4.223.591-.07 1.242-.138 2.189-.415zM49.997 151.75c.177 0 .414 0 .592.07.473-1.454 1.005-2.977 1.42-4.43 1.005-3.324 2.248-6.578 2.958-9.97 1.716-8.03.65-15.992-.177-23.953-.237-2.146-1.48-3.392-3.55-3.6-.77 5.746.295 11.423.71 17.1.354 4.707.414 9.484.118 14.192-.178 2.561-1.361 4.915-1.953 7.338-.177 1.108-.059 2.215-.118 3.254zM39.05 109.728c-2.425.416-3.49 1.593-3.668 4.223-.295 3.6-.769 7.131-.828 10.731-.06 3.738-.177 7.477.533 11.077 1.124 5.469 2.958 10.73 4.496 16.338 1.539-1.592.829-3.185.296-4.43-2.84-6.993-2.485-14.331-1.479-21.67.71-5.4 1.065-10.73.65-16.269z" inkscape:connector-curvature="0"/><path d="M40.885 176.742c3.077-4.223-.887-29.491-4.556-31.222 0 3.6-.06 7.27 0 10.938.118 4.362.414 8.654.592 13.015.177 3.393 1.834 5.47 3.964 7.27zM54.435 145.174c-.178-.07-.296-.139-.474-.208-.414.9-1.006 1.8-1.302 2.839-.65 2.007-1.124 4.153-1.715 6.092-1.598 5.123-2.604 10.453-2.84 15.923-.119 2.353-.06 4.915 1.42 7.06 1.893-1.937 3.786-3.668 3.905-6.853.177-5.953.532-11.976.769-18 .059-2.284.118-4.5.237-6.853zM56.742 143.305c-1.42.554-1.597 1.73-1.597 2.907-.06 3.393-.178 6.646-.06 10.039.119 4.776.237 9.553-.887 14.192-.533 2.215-.119 3.669 1.597 4.707.119-.069.237-.138.355-.277.178-.138.296-.346.415-.554 1.715-3.946 3.017-8.1 2.485-12.669-.592-4.984-1.243-9.9-1.835-14.815-.236-1.176-.295-2.353-.473-3.53zM34.436 175.22c2.307-1.87 2.011-1.87 1.716-4.639-.474-4.292-.71-8.584-.888-12.877-.177-4.084-.118-8.169-.237-12.184 0-.761-.65-1.454-.946-2.215-.178.069-.355.138-.533.277-.296 2.7-.591 5.33-.887 8.03-.474 4.362-1.124 8.654-1.302 13.015-.177 3.877 1.183 7.339 3.077 10.592zM38.46 205.403h.532c.059-.623.118-1.315.177-1.938.414-5.677.71-11.284 1.184-16.961.295-3.877 1.065-7.892-1.835-10.87-.532-.553-1.597-1.107-2.07-.9-.888.485-1.953 1.247-1.539 3.047.473 1.938.888 3.946 1.124 5.954.77 6.715 1.48 13.5 2.249 20.215 0 .415.118.9.177 1.453zM51.417 205.334h.532c.06-.554.178-1.038.237-1.592.533-5.538.947-11.008 1.598-16.546.355-3.323 1.065-6.507 1.656-9.761.296-1.593-.71-2.354-1.538-2.908-.414-.277-1.42.346-1.953.83-2.485 2.424-2.425 5.747-2.189 9.208.533 6.3.888 12.67 1.361 18.97.118.622.237 1.245.296 1.8zM58.34 149.397h.236c.06-1.662.178-3.462.237-5.123.118-2.285-.06-4.777.473-6.923 1.48-5.954 1.243-11.769.237-17.792-.473-2.838-1.243-5.33-3.491-6.508.296 3.739.828 7.685.888 11.562.059 4.292-.651 8.653-.415 12.946.178 3.946 1.184 7.892 1.835 11.838zM31.832 149.743c.592-3.185 1.125-5.954 1.539-8.792.236-1.73.296-3.53.236-5.262-.059-3.461-.414-6.853-.295-10.315.118-4.084.591-8.1.946-12.738-1.065 1.385-2.366 2.354-2.662 3.738-1.361 5.954-2.545 11.977-1.065 18.277.828 3.53 1.242 7.061 1.006 10.8-.06 1.246.177 2.7.295 4.292z" inkscape:connector-curvature="0"/></g><path fill="#999" d="M46.98 16.061c-.237 0-.474-.069-.71-.069-.178.692-.592 1.454-.533 2.146.355 4.915.769 9.83 1.183 14.746.178 2.285.414 2.63 2.367 1.87 2.485-.832 4.852-1.732 7.16-2.632-1.362-1.246-3.018-2.7-4.616-4.153-3.372-2.908-5.917-6.37-4.852-11.908zM34.022 32.33c2.189.762 4.496 1.592 6.863 2.423 2.07.762 2.367.554 2.544-1.87 0-.484.119-.968.178-1.453.769-4.43 1.36-8.861 1.065-13.43-.06-.693-.474-1.316-.651-2.008-.178.07-.296.138-.473.208.059.623.177 1.246.236 1.938.119 3.254-.946 5.885-3.076 8.03-2.367 2.078-4.675 4.154-6.686 6.162zM30.708 37.592c-2.307-1.8-5.088-2.008-6.804-.554-2.84 2.561-4.024 9.276-2.071 12.807 3.018-4.084 5.917-8.238 8.875-12.253zM59.641 37.592c3.018 4.153 5.917 8.238 8.875 12.253.178-.07.415-.138.592-.208.06-2.007.414-4.153.178-6.161-.651-6.784-5.089-9.277-9.645-5.884zM64.848 46.868c-.237 2.977-.473 5.608-.65 8.377-.12 2.146-.356 4.43-.178 6.577.296 3.254 1.597 5.954 3.254 8.169.237-4.085.296-8.308.65-12.392.474-4.085-.887-7.408-3.076-10.73zM22.661 70.268c2.249-2.562 3.728-5.608 3.728-9.277-.06-4.638-.533-9.277-.828-13.984-2.604 3.323-3.61 7.061-3.077 11.561.414 3.946.947 7.754.177 11.7zM35.915 50.191a383.225 383.225 0 00-3.254-8.93c-.474-1.177-1.361-1.731-2.308-.762-1.952 2.008-3.372 4.5-3.846 7.685 3.136.692 6.035 1.315 9.408 2.007zM54.435 50.191a401.167 401.167 0 009.289-2.007c-.355-2.977-1.657-5.054-3.195-6.993-1.243-1.592-2.308-1.453-3.077.485-1.006 2.562-1.834 5.192-3.017 8.515zM21.715 74.075c-.178-.138-.296-.276-.474-.415-1.716 5.954-3.49 11.907-5.206 17.93 3.905-5.469 6.804-11.492 8.579-18.207-1.124.208-2.012.485-2.9.692zM65.854 73.383c.65 4.43 5.562 15.161 8.224 17.861-.71-2.977-1.36-5.884-2.248-8.792-.888-2.977-1.893-5.815-2.959-8.723l-.355.416a50.82 50.82 0 00-2.662-.762zM43.015 107.306c-2.19.207-2.485.623-2.485 2.769.06 2.284-.118 4.569 0 6.853.178 4.085.473 8.1.71 12.116h.473c1.243-7.27 1.243-14.47 1.302-21.738zM48.873 129.044c.118-.97.236-1.731.355-2.631.236-2.7.591-5.262.65-7.962.06-2.907-.236-5.815-.118-8.722.119-2.008-.65-2.631-2.189-2.77-.592 4.154.237 19.038 1.302 22.085zM60.588 96.575c-.592-3.115-1.006-6.23-1.716-9.346-.473-2.146-1.538-2.908-3.254-2.838-1.657.069-3.136 1.315-3.61 3.184 6.272 4.223 6.272 4.223 8.58 9zM29.88 96.229c.118.069.296.138.414.207 1.006-5.122 4.497-7.2 8.224-8.86-1.065-2.355-2.662-3.462-4.437-3.255-1.834.208-2.544 1.87-2.9 3.739-.473 2.7-.887 5.538-1.301 8.169zM49.405 147.25c2.308-4.914 2.544-10.245 1.006-21.737-1.302 4.915-1.952 18.969-1.006 21.738zM40.944 147.597c.888-4.154.178-17.723-1.065-21.6-.236 2.631-.355 5.193-.65 7.754-.592 4.708-.296 9.277 1.715 13.846zM77.214 95.26c.296-4.223-2.9-18.83-4.556-21.461.355 7.338 1.302 14.676 4.556 21.46zM17.395 74.422c-2.248 6.784-4.082 13.707-4.615 21.53 3.373-6.992 4.615-14.123 4.615-21.53zM78.93 96.021c1.065-.484 2.485-.346 1.953-2.215a482.007 482.007 0 00-4.024-15.23c-.71-2.562-1.716-4.985-2.662-7.408-.119.069-.296.138-.415.207 2.84 7.823 4.497 15.923 5.148 24.646zM16.094 72.345c-.178-.07-.296-.139-.474-.208-.71 2.077-1.538 4.154-2.189 6.23-1.302 4.916-2.544 9.9-3.846 14.816-.532 1.938-.059 2.769 1.834 2.561.592-8.1 2.308-15.923 4.675-23.4zM43.548 103.982c.236-.069.414-.138.65-.138.06-1.177 0-2.423.237-3.67.592-3.53-.06-6.299-3.668-7.891a943.117 943.117 0 012.78 11.7zM46.21 103.775c1.834-3.462 2.9-7.062 2.9-11.077-2.604 1.108-3.61 3.115-3.255 6.023.237 1.662.237 3.254.355 5.054zM53.37 205.057c.177.07.414.139.591.208.119-.554.355-1.108.414-1.662.06-.969-.118-1.938 0-2.976.296-2.7.888-5.331 1.065-8.031.178-2.561.06-5.054.06-7.615h-.77c-.355 6.715-.887 13.43-1.36 20.076zM36.507 205.403c0-3.738.177-7.06-.06-10.453-.236-3.323-.828-6.508-1.242-9.762-.178 0-.296.07-.473.07 0 2.284-.119 4.569.059 6.853.177 2.285.355 4.708 1.006 6.923.532 1.939-.71 4.431.71 6.37zM34.968 82.868a341.376 341.376 0 00-2.721-9.485c-.06.07-.119.07-.178.139-.118 3.461-.296 6.923-.414 10.522 1.124-.484 2.07-.761 3.313-1.176zM58.813 83.906a844.49 844.49 0 01-.592-9.83c-.118 0-.236 0-.355-.07a721.174 721.174 0 01-2.366 8.93c1.301.416 2.189.693 3.313.97zM43.903 4.915c-1.775 1.177-3.55 2.146-5.148 3.462-.533.415-.414 1.592.65 1.592.83 0 1.658-.208 2.545-.415 2.248-.623 2.663-1.454 1.953-4.639zM46.447 5.054C45.855 8.238 46.21 9 48.459 9.623c.473.138.946.346 1.36.277.651-.07 1.302-.277 2.012-.485-.473-.623-.887-1.315-1.42-1.869-.532-.554-1.183-.97-1.834-1.315-.71-.485-1.42-.831-2.13-1.177zM28.992 121.844c1.657-4.085 2.249-8.1 0-12.6zM60.706 122.397h.533v-12.6c-.71 1.316-1.361 2.84-1.302 4.224.06 2.838.533 5.677.77 8.376z" inkscape:connector-curvature="0"/><g fill="#999"><path d="M40.59 21.53c2.603-2.977 2.603-5.192 0-8.515zM49.76 12.807c-2.603 3.946-2.662 6.439-.236 9.07.828-3.116.236-5.954.236-9.07zM18.815 66.737c.888-4.984 1.775-9.9 2.84-15.369-2.662 4.985-2.958 10.177-2.84 15.37zM68.694 51.368c.947 5.4 1.953 10.661 2.958 15.923.119-5.47-.236-11.008-2.958-15.923zM69.226 58.083h-.473c0 2.908-.059 5.746.06 8.654 0 .415.473.83.71 1.315.295-.484.828-.969.769-1.384a975.12 975.12 0 00-1.066-8.585zM21.715 58.083h-.592c-.355 2.839-.71 5.677-.947 8.516-.059.484.533.969.829 1.453.236-.484.591-.9.65-1.384.119-1.385.06-2.839.06-4.292v-4.293zM83.782 107.029c-.119.207-.237.415-.355.553.532 1.731 1.065 3.6 1.716 5.331.118.415.591.692.887 1.038.06-.553.296-1.107.178-1.592a36.644 36.644 0 00-1.361-4.361c-.119-.346-.651-.554-1.065-.97zM3.905 113.813c.237.07.414.208.65.277 1.243-1.87 1.598-4.223 2.308-6.37 0-.068-.355-.484-.532-.484-.237.07-.592.277-.71.554a93.801 93.801 0 00-1.183 3.808c-.296.554-.415 1.453-.533 2.215zM19.052 77.398c.888-2.63 1.657-4.984 2.663-7.753-2.367 1.454-3.432 4.915-2.663 7.753zM71.12 76.983c.65-3.046-.237-5.815-2.426-6.854.887 2.354 1.657 4.708 2.426 6.854zM87.687 100.244c-.296.346-.651.554-.828.9-.119.277-.119.83 0 .97.769.692 1.597 1.384 2.485 1.938.177.138.65 0 .828-.208.177-.208.177-.83.06-.97-.71-.968-1.54-1.73-2.545-2.63zM2.663 100.244c-.77.692-1.598 1.246-2.426 2.008-.237.277-.178.9-.237 1.384.414.07.888.277 1.243.07.532-.208.887-.831 1.42-1.108 1.301-.692 1.124-1.385 0-2.354zM4.378 106.336c-1.42-.207-3.372 3.53-2.958 5.677 1.243-1.592 1.953-3.67 2.958-5.677zM81.238 107.444c-.119.07-.178.208-.296.277.414 1.8.769 3.669 1.242 5.4.06.277.533.415.77.623.118-.277.354-.623.295-.9-.355-1.592-.71-3.185-1.183-4.777-.06-.277-.533-.415-.828-.623zM89.107 112.013c.118-.138.296-.277.414-.415-.77-1.731-1.48-3.531-2.367-5.262-.118-.207-.532-.207-.769-.277-.059.346-.177.693-.118.97.592 1.453 1.242 2.976 1.952 4.361.237.346.651.415.888.623zM6.863 113.882c.592-.069.888 0 .888-.069.533-1.87 1.006-3.808 1.48-5.746.058-.138-.237-.485-.356-.485-.236 0-.591.139-.591.277-.474 1.87-.888 3.808-1.42 6.023zM85.439 103.013c.177-1.8-1.539-4.846-2.604-5.123-.177-.069-.473.07-.532.208-.06.208-.119.623 0 .83.946 1.247 1.952 2.493 3.136 4.085zM8.343 98.444l-.178-.415c-.355.069-.828.069-1.006.277-.946 1.246-2.899 1.869-2.189 4.638 1.183-1.661 2.308-3.046 3.373-4.5zM36.802 208.588c.355-1.938-1.301-4.015-3.254-3.946 1.065 1.246 2.071 2.492 3.254 3.946zM53.37 208.173c1.715-.9 2.899-2.423 3.017-4.016-2.012.97-3.195 2.423-3.018 4.016zM50.944 17.515c.236 0 .473 0 .71-.07.059-1.245.118-2.56.118-3.807 0-.277-.473-.484-.71-.761-.178.277-.592.623-.592.9.119 1.246.296 2.492.474 3.738zM38.696 17.515h.769c.118-1.246.296-2.423.355-3.738 0-.277-.355-.623-.532-.9-.237.277-.651.553-.651.83-.06 1.316 0 2.562.059 3.808zM11.005 106.89c-.355 2.077-.591 3.808-.887 5.538.118 0 .296.07.414.07 1.006-1.593 1.36-4.5.473-5.608zM79.463 112.705c.177-.069.355-.069.532-.138.178-1.87-.414-4.638-1.597-5.47.414 2.078.769 3.808 1.065 5.608zM46.27 0c-.178.277-.297.623-.474.9 1.42.692 2.9 1.315 4.32 2.008.058-.208.177-.347.236-.554C48.992 1.662 47.63.83 46.269 0zM40.116 3.115c1.48-.692 2.958-1.384 4.674-2.215-1.893-.762-3.432.07-4.674 2.215zM49.938 206.234c.177-.138.414-.208.591-.346-.473-1.177-.887-2.354-1.36-3.6-.237.139-.415.208-.651.346-.888 1.87 1.301 2.216 1.42 3.6zM39.88 205.888c.118.07.295.138.413.208 2.012-2.7 2.012-2.7.829-3.739-.474 1.246-.888 2.354-1.243 3.531zM6.45 103.082l.413 1.385 1.953-4.084zM8.343 104.675h.946l.533-3.808zM10.532 104.675h.947l.295-4.154zM78.575 100.867l.414 3.808h.888zM80.646 100.798l.65 3.877h.83v-.9zM82.125 100.036l1.42 4.431.533-1.038zM38.755 208.034c-.414 0-.77-.415-.77-.9 0-.484.356-.9.77-.9.414 0 .77.416.77.9 0 .485-.356.9-.77.9zM51.772 208.034c-.414 0-.77-.415-.77-.9 0-.484.356-.9.77-.9.414 0 .77.416.77.9 0 .485-.356.9-.77.9z" inkscape:connector-curvature="0"/></g><path d="M46.811 54c-.185-.703.012-12.023.251-14.378.204-2.014 1.14-2.913 4.332-4.159 4.344-1.695 7.195-2.12 9.815-1.46 1.237.312 1.604.77.617.77-1.256 0-2.819.706-3.855 1.74-.793.792-1.428 1.904-2.37 4.148-2.519 6.006-4.6 9.56-7.42 12.672-1.165 1.284-1.202 1.302-1.37.668zM46.442 91.368c-.118-.184-.19-1.778-.16-3.542.085-4.88.868-24.935 1.036-26.52.284-2.68 3.97-7.36 6.855-8.704 1.436-.668 6.141-1.931 8.296-2.226l1.194-.164-1.134 4.241c-1.239 4.632-4.162 14.274-6.431 21.213-1.628 4.977-2.308 6.246-6.047 11.276-1.453 1.957-2.711 3.828-2.795 4.158-.17.67-.486.774-.814.268zM56.019 46.069c1.584-4.595 1.911-5.295 2.66-5.696.481-.258.69-.148 1.609.847 1.609 1.743 3.67 6.245 3.115 6.801-.07.07-1.798.487-3.841.927-2.043.44-3.982.86-4.309.933-.569.128-.535-.038.766-3.812zM59.245 93.615c-.72-1.28-2.799-3.214-5.218-4.853-.976-.662-1.777-1.344-1.78-1.516-.01-.483 1.305-1.932 2.15-2.37 1.738-.898 3.614-.036 4.198 1.932.416 1.398 1.45 7.27 1.339 7.603-.05.149-.36-.21-.69-.796zM56.628 111.37a110.418 110.418 0 00-4.469-3.295c-2.194-1.505-2.795-2.208-3.12-3.653-.218-.963 1.057-12.206 1.602-14.123.348-1.228.907-1.295 2.823-.34 2.704 1.347 5.03 4.27 6.17 7.756.923 2.82.964 6.99.12 12.013-.319 1.903-.607 3.477-.64 3.498-.032.021-1.151-.814-2.486-1.856z" inkscape:connector-curvature="0" fill="#999"/><path d="M64.365 43.861c-2.331-3.23-4.277-5.989-4.324-6.129-.105-.317 1.377-1.101 2.622-1.387 3.004-.689 5.764 2.119 6.383 6.491.257 1.818.087 6.572-.243 6.776-.11.068-2.107-2.52-4.438-5.751zM41.275 88.344c-5.12-6.416-5.124-6.422-7.535-14.282-2.54-8.284-6.545-21.865-6.758-22.918-.215-1.067-.381-1.06 4.029-.182 4.339.864 5.514 1.478 8.415 4.4 2.863 2.882 3.398 3.969 3.722 7.556.296 3.28.891 24.146.763 26.762l-.09 1.854z" inkscape:connector-curvature="0" fill="#999"/><g inkscape:label="Trapeqius" inkscape:groupmode="layer" fill="red"><path inkscape:connector-curvature="0" d="M38.276 33.697l-3.99-1.394 1.677-1.593c.923-.876 2.678-2.53 3.901-3.675 3.16-2.958 4.168-5.26 3.956-9.024-.055-.965-.027-1.755.06-1.755.088 0 .3.499.47 1.109.456 1.625.185 7.197-.613 12.61-.608 4.131-.876 5.172-1.317 5.13-.084-.008-1.949-.641-4.144-1.408zM47.313 34.324c-.115-.303-.499-4.143-.853-8.532-.576-7.132-.607-8.083-.293-8.942.194-.529.37-.906.392-.839.022.067.069 1.17.104 2.45.116 4.196 1.337 6.263 6.362 10.771l3.132 2.81-1.027.436c-2.001.85-6.576 2.397-7.088 2.397-.314 0-.603-.218-.729-.551zM46.81 48.778c.016-7.365.245-10.281.877-11.158.884-1.226 5.572-3.161 9.143-3.773 1.362-.234 2.104-.232 3.501.007 2.012.345 2.569.676 1.509.896-1.946.404-2.679.727-3.612 1.591-1.137 1.053-1.65 1.959-3.124 5.516-1.508 3.64-2.7 5.898-4.264 8.084-1.721 2.406-3.512 4.533-3.815 4.533-.132 0-.221-2.372-.214-5.696zM41.646 52.833c-2.504-2.676-4.397-5.913-6.378-10.904-1.978-4.985-3.91-6.922-7.333-7.349-.397-.05.139-.28 1.52-.657 2.453-.669 2.144-.711 8.203 1.116 4.09 1.233 4.992 1.806 5.466 3.474.36 1.268.642 15.593.31 15.798-.141.088-.946-.578-1.788-1.478z"/></g><g inkscape:label="Deltoid" inkscape:groupmode="layer" fill="red"><path inkscape:connector-curvature="0" d="M21.536 48.927c-.155-.385-.336-1.612-.402-2.726-.287-4.828 1.698-9.076 4.607-9.86 1.143-.307 3.19.154 4.156.936l.55.445-4.315 5.952c-4.275 5.9-4.316 5.946-4.596 5.253zM66.746 47.185c-.95-1.313-2.906-4.012-4.346-5.997l-2.617-3.61 1.257-.637c3.787-1.919 7.035.335 7.946 5.516.377 2.145.21 7.117-.24 7.117-.15 0-1.05-1.075-2-2.389z"/></g><g inkscape:label="Biceps" inkscape:groupmode="layer" fill="red"><path inkscape:connector-curvature="0" d="M23.07 66.339c.005-1.761-.125-4.506-.289-6.099-.406-3.936-.216-6.922.57-8.981.63-1.651 1.837-3.779 2.032-3.584.175.175.833 10.145.835 12.643.003 3.322-.975 6.476-2.671 8.61l-.487.612zM66.246 68.142c-1.54-2.616-1.88-3.922-1.993-7.666-.087-2.872.48-12.749.747-13.016.219-.218 1.927 3.474 2.392 5.173.528 1.922.532 2.067.242 8.207-.162 3.438-.369 6.779-.46 7.424l-.164 1.174z"/></g><g inkscape:label="Glutes" inkscape:groupmode="layer" fill="red"><path inkscape:connector-curvature="0" d="M30.153 95.758c-.031-1.148 1.295-8.424 1.707-9.369.465-1.064 1.674-2.025 2.551-2.026.887-.002 2.532.993 3.174 1.92.352.507.64.993.64 1.08 0 .086-.772.562-1.715 1.058-3.059 1.607-5.052 3.785-5.905 6.453-.241.753-.445 1.15-.452.884zM30.657 109.985c-1.295-6.308-1.04-10.34.91-14.354 1.089-2.243 3.446-4.703 5.478-5.717 1.759-.877 2.205-.799 2.56.452.367 1.297 1.816 11.955 1.81 13.313-.01 2.106-.716 2.936-4.289 5.048-2.447 1.447-4.065 2.8-4.957 4.148l-.702 1.06zM56.966 111.658a98.998 98.998 0 00-4.41-3.294c-3.061-2.142-3.394-2.584-3.512-4.67-.09-1.607 1.273-12.763 1.697-13.878.74-1.946 6.18 1.865 7.984 5.593 1.823 3.77 2.112 7.608 1.064 14.125-.331 2.055-.66 3.729-.732 3.72-.072-.01-1.013-.728-2.091-1.596zM59.475 94.06c-.66-1.384-2.518-3.224-5.02-4.97-1.247-.869-2.266-1.654-2.265-1.745 0-.091.22-.525.487-.964.686-1.125 1.858-1.772 3.212-1.773 2.097-.002 2.653 1.015 3.657 6.69.585 3.304.564 4.098-.071 2.763z"/></g><g inkscape:label="Thoracolumbar Area" inkscape:groupmode="layer" fill="red"><path inkscape:connector-curvature="0" d="M42.04 89.35c-2.7-3.283-4.862-6.25-5.696-7.821-.425-.8-1.488-3.77-2.362-6.6-2.952-9.554-6.76-22.53-6.93-23.612l-.17-1.075 1.2.177c2.639.389 6.015 1.148 7.01 1.577 2.551 1.102 6.188 4.69 7.3 7.203.721 1.632.917 3.893 1.205 13.894.141 4.918.318 10.926.392 13.351.075 2.426.048 4.535-.058 4.688-.125.18-.797-.454-1.89-1.783zM46.543 91.575c-.253-.304-.328-1.162-.297-3.382.056-4.053.775-22.174 1.013-25.558l.193-2.741 1.315-2.002c1.643-2.504 3.582-4.446 5.255-5.265 1.504-.735 7.976-2.378 8.943-2.27l.662.074-1.156 4.288c-.636 2.358-2.212 7.704-3.504 11.881-4.62 14.94-4.165 13.895-8.86 20.327-1.427 1.955-2.737 3.893-2.91 4.306-.287.68-.347.712-.654.342z"/></g><g inkscape:label="Gracilis" inkscape:groupmode="layer" fill="red"><path inkscape:connector-curvature="0" d="M41.31 127.93c-.287-2.249-.637-10.328-.636-14.694 0-5.015.097-5.376 1.531-5.702l.674-.153-.003 3.618c-.005 4.779-.396 11.513-.872 15.006-.21 1.547-.422 2.853-.47 2.901-.048.048-.15-.39-.224-.976zM48.653 127.447c-.847-3.792-1.538-19.769-.872-20.18.487-.301 1.274.185 1.613.997.49 1.172.463 10.586-.044 15.68-.213 2.147-.428 3.943-.478 3.993-.049.05-.148-.171-.219-.49z"/></g><g inkscape:label="Hamstrings" inkscape:groupmode="layer" fill="red"><path inkscape:connector-curvature="0" d="M31.779 147.323c-.085-.606-.2-2.922-.258-5.145-.083-3.204-.243-4.677-.772-7.104-1.111-5.097-.916-10.433.627-17.096.428-1.847.71-2.507 1.504-3.51.537-.68 1.03-1.185 1.094-1.12.064.063-.003 1.422-.149 3.02-.611 6.712-.721 10.315-.477 15.639.27 5.868.138 7.92-.856 13.356-.522 2.853-.57 2.987-.713 1.96zM38.025 146.26c-3.701-12.614-4.024-15.885-2.838-28.825.442-4.833.617-5.583 1.502-6.427.71-.677 1.996-1.28 2.23-1.045.075.075.125 2.311.111 4.968-.019 3.601-.196 6.265-.697 10.466-.478 4.006-.674 6.838-.68 9.8-.01 4.97.388 7.523 1.83 11.729.802 2.335.957 3.057.785 3.655-.117.41-.325.783-.46.828-.137.045-.938-2.271-1.783-5.148z"/><path inkscape:connector-curvature="0" d="M40.344 145.72c-.793-2.386-1.131-4.658-1.13-7.584.001-2.773.573-10.586.79-10.804.155-.155.658 3.612.918 6.884.277 3.476.29 11.551.018 12.244-.156.4-.26.27-.596-.74zM49.14 144.39c-.273-3.492.337-13.486 1.055-17.278.335-1.767.891 4.377.888 9.799-.002 4.389-.062 5.109-.573 6.905-.906 3.18-1.158 3.285-1.37.574z"/><path inkscape:connector-curvature="0" d="M50.233 150.128c.004-1.273.224-2.383.875-4.398.734-2.273.911-3.27 1.13-6.37.283-4.014-.003-11.708-.66-17.76-.198-1.82-.362-5.154-.364-7.411-.005-3.833.025-4.104.448-4.104.739 0 2.088 1.045 2.535 1.963.486.995 1.11 6.49 1.417 12.468.238 4.624-.022 9.127-.72 12.49-.5 2.416-4.097 14.19-4.457 14.592-.117.13-.206-.514-.204-1.47zM57.581 144.628c-.932-5.207-.93-5.161-.746-18.619.056-4.046-.034-6.776-.301-9.187-.209-1.886-.347-3.464-.306-3.505.04-.042.468.33.95.827 1.554 1.6 2.34 4.627 2.883 11.112.32 3.824.071 7.599-.762 11.545-.273 1.295-.504 3.394-.523 4.765-.02 1.347-.104 3.662-.188 5.144l-.152 2.695z"/></g></g></svg>