<svg xmlns="http://www.w3.org/2000/svg" xmlns:sodipodi="http://sodipodi.sourceforge.net/DTD/sodipodi-0.dtd" xmlns:inkscape="http://www.inkscape.org/namespaces/inkscape" sodipodi:docname="muscle-front.svg" inkscape:version="1.0beta2 (2b71d25, 2019-12-03)" viewBox="0 0 92.14 210.457" height="795.429" width="348.245"><sodipodi:namedview inkscape:guide-bbox="true" showguides="true" inkscape:window-maximized="0" inkscape:window-y="23" inkscape:window-x="5" inkscape:window-height="1005" inkscape:window-width="1211" showgrid="false" inkscape:document-rotation="0" inkscape:current-layer="layer6" inkscape:document-units="mm" inkscape:cy="371.96" inkscape:cx="468.586" inkscape:zoom=".76" inkscape:pageshadow="2" inkscape:pageopacity="0" borderopacity="1" bordercolor="#666666" pagecolor="#ffffff"/><g inkscape:label="Front"><g fill="#999"><path inkscape:connector-curvature="0" d="M39.125 144.274c.237-6.092.415-12.046.651-18.069.119-2.838 1.006-5.608 0-8.446-1.952-5.33-4.023-10.661-6.094-16.269-.77 5.885-1.48 11.423-.296 17.17 1.302 6.299 2.308 12.668 3.432 19.037.355 2.146.592 4.43.887 6.508h1.42zM62.674 48.737c-1.36-1.107-2.603-2.007-3.727-3.046-1.125-.969-2.249-2.077-3.432-2.977-1.775-1.315-3.61-2.63-5.444-3.669-.71-.415-1.893-.553-2.485-.069-.532.485-.71 1.8-.71 2.839 0 2.7.178 5.33.296 8.03 0 .208-.118.485-.177.692-.533 2.354-.06 3.531 2.07 3.946 5.385.9 9.408-2.353 13.61-5.746zM53.562 144.274c1.184-7.13 2.19-14.33 3.61-21.253.946-4.777 1.893-9.485 1.42-14.47-.237-2.284-.533-4.638-.77-6.922-.532.83-.71 1.592-1.005 2.284-1.539 4.223-3.195 8.377-4.675 12.6-.769 2.146-1.006 4.361-.828 6.784.473 5.608.71 11.216.947 16.823.059 1.385-.178 2.77-.237 4.223.71-.07 1.183-.07 1.538-.07zM29.008 48.668c3.017 3.046 6.153 4.915 9.822 5.746 1.183.277 2.544.208 3.727 0 2.012-.415 2.604-1.454 2.071-3.807-.06-.416-.177-.831-.177-1.246.059-2.977.236-5.885.236-8.793 0-1.592-1.065-2.353-2.426-1.8-1.183.554-2.426 1.108-3.431 1.87-3.255 2.492-6.45 5.192-9.822 8.03zM44.628 90.552c.06-1.87.06-3.877.06-5.746 0-3.946-1.48-5.677-4.853-5.815-1.005-.07-1.597.277-1.479 1.661.119 1.662 0 3.53.355 5.123.829 4.085 1.775 8.1 2.9 11.977.177.692 1.242 1.038 1.893 1.523.355-.762.947-1.454 1.006-2.285.177-2.007.118-4.153.118-6.438zM27.292 49.36c-1.006.485-1.953.9-2.959 1.385-.355.208-.769.485-.887.9-.888 4.085-1.834 8.238-2.544 12.323-.178.97.473 2.77 1.183 3.254 1.183.83 2.248-.346 3.077-1.454.177-.208.296-.485.414-.762 1.952-3.253 2.722-6.992 3.373-10.869.414-2.077.473-3.946-1.657-4.776zM63.917 49.014c-.592 1.039-1.657 2.008-1.539 2.839.355 4.084.947 8.1 2.781 11.63.651 1.246 1.42 2.562 2.367 3.462 1.243 1.246 2.722.554 3.018-1.385.118-.761.236-1.592.118-2.354-.414-2.769-1.006-5.4-1.48-8.169-.473-2.63-1.301-4.777-3.904-5.192-.474-.07-.77-.415-1.361-.83zM46.521 90.413c.119 0 .296 0 .415.07 0 2.146-.06 4.361.059 6.507.059.831.532 1.593.887 2.354.651-.485 1.361-.9 2.012-1.385.237-.207.355-.623.473-.969 1.775-5.261 2.663-10.8 2.9-16.407 0-.415-.119-1.039-.355-1.246-.947-.9-5.03.415-5.207 1.869-.533 2.977-.829 6.092-1.184 9.207zM48.829 197.234c.177.139.355.277.473.416.237-.554.592-1.108.71-1.662 1.598-8.1 3.314-16.061 4.793-24.16.828-4.5 1.538-9.07 2.19-13.639.117-.9-.415-2.77-.948-2.977-1.301-.415-1.538 1.246-2.011 2.285-.296.623-.474 1.384-.592 2.077-.473 3.669-1.065 7.269-1.36 10.938-.415 5.538-.474 11.077-1.066 16.615-.355 3.6-1.479 6.923-2.19 10.107zM42.32 197.58c.178-.138.296-.276.474-.484-1.716-6.37-3.136-12.808-3.195-19.523-.06-4.361-.237-8.653-.651-12.946-.296-2.769-1.065-5.4-1.834-8.03-.178-.693-1.065-1.039-1.657-1.593-.296.693-.77 1.385-.828 2.147-.06 1.453-.06 3.046.177 4.43a716.246 716.246 0 003.018 15.508c1.242 6.369 2.544 12.738 3.786 19.107.06.623.415 1.038.71 1.384zM37.528 90.898c-.355-5.123-.592-9.692-1.124-14.192-.178-1.177-1.302-2.423-2.249-3.323-1.124-1.038-1.775-.554-1.834 1.177-.118 2.838 0 5.608-.473 8.308-.71 4.292 1.716 6.853 4.615 8.445.237.07.887-.415 1.065-.415zM59.302 83.006c0-2.838.059-5.677 0-8.515 0-1.454-.592-1.939-1.716-1.316-1.361.762-2.485 2.008-2.663 3.946-.414 4.293-.65 8.654-1.006 12.946-.118 1.454.474 1.8 1.48 1.177 3.313-2.284 4.851-4.223 3.905-8.238z"/><path inkscape:connector-curvature="0" d="M33.86 137.697c-.474-3.738-1.006-7.407-1.361-11.146-.651-6.784-.888-13.569-.296-20.422.355-4.5.71-9 1.006-13.5.059-.692-.296-1.454-.415-2.216-.177.07-.355.07-.532.139-3.373 15.923-2.544 31.569 1.597 47.145zM57.645 138.32c4.2-15.784 4.97-31.707 1.42-47.907-.355.416-.65.9-.65 1.385 0 1.177.058 2.285.117 3.53.355 5.331.888 10.593 1.066 15.924.355 9.138-.474 18.207-1.953 27.068zM41.374 123.09c-.178 2.354-.474 4.846-.592 7.2-.177 4.292-.237 8.653-.237 12.945 0 1.247.06 2.977 1.539 2.977 1.479.07 1.656-1.661 1.893-2.977 1.065-7.06-.296-13.707-2.603-20.145zM50.486 122.882h-.592c-1.953 6.23-3.254 12.738-2.426 19.453.118 1.039.414 2.147.888 3.116.65 1.246 1.775 1.038 2.366-.277.178-.485.355-1.039.355-1.592-.177-6.923-.414-13.777-.591-20.7zM19.008 67.706c-2.07 2.285-3.431 5.4-4.496 10.73-1.125 5.885-2.19 11.77-5.444 16.824.414-.139.77-.347.947-.693 2.366-4.292 4.556-8.653 6.922-12.876 2.426-4.293 3.255-8.793 2.071-13.985zM82.14 95.398c.119-.07.237-.208.355-.277-2.84-4.292-4.082-9.277-5.088-14.4-.65-3.253-1.597-6.369-2.663-9.484-.414-1.246-1.301-2.354-2.189-3.738-1.301 5.607-.296 10.246 2.19 14.676 2.366 4.085 4.437 8.308 6.685 12.323.178.415.474.623.71.9zM23.268 49.43c4.438-.139 8.106-5.262 10.118-12.946-1.183-.485-2.248-.346-3.195.623-3.432 3.184-5.503 7.477-6.923 12.323zM58.414 35.93c1.657 7.892 5.503 13.569 9.881 13.5-1.42-4.777-3.432-9.07-6.863-12.115-.829-.831-2.012-.9-3.018-1.385zM44.096 126.482c-1.776-11.7-6.272-22.361-10.059-33.645-.355 3.53.177 6.576 1.183 9.484 2.9 8.169 5.917 16.2 8.876 24.161zM47.764 126.205c.71-2.146 1.36-4.361 2.19-6.507 2.07-5.677 4.26-11.285 6.27-16.962 1.303-3.738 1.658-7.061 1.243-9.553-3.727 10.938-8.165 21.392-9.703 33.022zM44.687 75.045c0-4.085-.591-4.708-3.964-4.362-2.248.277-3.846 3.53-2.781 5.885.178.415.77.623 1.243.761.828.208 1.656.139 2.544.346 2.958.97 2.958 1.108 2.958-2.63zM46.876 78.506a108 108 0 006.154-1.108c.237-.069.473-.623.532-.969.474-1.8-.059-3.877-1.183-4.846-1.006-.9-4.023-1.038-4.97-.208-.237.208-.533.693-.533 1.039zM44.687 69.09v-3.53c0-3.115-1.006-3.946-3.49-2.838-.77.346-1.48.9-2.19 1.523-1.48 1.592-1.775 4.154-.887 5.4 2.248-.208 4.26-.346 6.567-.554zM53.503 69.714c.592-1.662.355-3.392-.71-4.915-1.183-1.662-2.84-2.631-4.733-2.285-.414.07-1.065.623-1.124.97-.119 1.868-.06 3.876-.06 5.607 2.308.208 4.379.346 6.627.623zM33.86 164.973h-.474c.118 2.147 0 4.5.414 6.577 1.539 7.892 3.373 15.646 5.03 23.469.177.97.414 1.87.65 3.254.71-1.523-4.615-31.569-5.62-33.3zM10.606 98.098c-1.124 1.108-2.011 2.215-3.135 3.185-1.006.83-2.249 1.453-3.255 2.284-1.242 1.039-1.242 2.008.178 2.7 1.538.692 3.254 1.038 4.91 1.246 1.776.277 2.19-.277 1.598-2.354-.118-.484-.296-.969-.296-1.384v-5.677zM57.882 164.973c-.119 0-.237 0-.355-.069-.178.346-.355.693-.415 1.108-1.893 10.384-3.786 20.769-5.62 31.153-.06.208.295.554.591 1.039.592-3.185 1.124-5.954 1.716-8.723 1.36-6.231 2.84-12.462 4.083-18.83.355-1.662 0-3.67 0-5.678zM81.312 98.86c-.296 2.007-.592 4.707-.947 7.269-.177 1.246.592 1.384 1.243 1.315 1.598-.208 3.254-.485 4.793-.97.65-.207 1.183-1.038 1.775-1.522-.533-.623-.947-1.385-1.539-1.87-1.834-1.661-3.786-3.046-5.325-4.223zM61.55 46.591c-1.124-2.215-2.19-4.292-3.136-6.369-.947-2.077-2.485-3.392-4.378-4.015-1.716-.554-3.846-.139-4.97 1.108 5.147 1.592 8.401 5.884 12.484 9.276zM30.014 46.591c4.082-3.53 7.514-7.892 12.602-9.346-2.544-2.284-7.75-1.246-9.585 3.185-.947 2.008-1.952 4.015-3.017 6.161z"/><path inkscape:connector-curvature="0" d="M21.73 49.776c2.012-4.777 3.787-9.761 7.751-13.084-2.78-1.039-5.384.346-6.568 3.461-1.124 2.977-1.42 6.161-1.183 9.623zM37.942 62.791c2.07-.762 4.023-1.385 5.917-2.146.355-.139.71-.692.769-1.177.118-.83.118-1.73 0-2.63-.06-.416-.473-.97-.828-1.04-1.953-.345-3.669.624-4.97 2.147-1.184 1.315-1.42 3.046-.888 4.846zM69.715 49.776c.178-3.946.119-7.961-2.011-11.354-1.243-1.869-3.669-2.63-5.562-1.592 3.786 3.115 5.62 8.03 7.573 12.946zM53.503 62.791c.77-3.254-.591-5.815-3.668-6.784-2.485-.762-3.077-.277-2.959 2.7 0 .692.296 1.73.71 1.938 1.894.692 3.905 1.384 5.917 2.146zM58.592 121.22c-2.012 7.408-3.077 15.231-3.905 22.985-.06.415.355.9.65 1.73 2.308-8.376 2.722-16.476 3.255-24.714zM36.404 145.312c0-8.169-1.48-15.992-3.373-23.815.414 8.031.888 16.062 3.373 23.815zM48.356 117.69c.532-2.077 1.124-4.223 1.597-6.3.178-.692.06-1.592-.177-2.285-.888-2.076-1.894-4.153-2.84-6.161-.829 3.046-.06 11.838 1.42 14.746zM43.267 118.244c1.539-5.331 1.834-10.385 1.361-15.508l-2.663 5.816c-.295.692-.71 1.523-.591 2.146.532 2.353 1.183 4.707 1.893 7.546zM40.072 98.79c-2.07 3.6-1.302 6.646.888 9.623 3.431-6.161 3.313-6.854-.888-9.623zM51.314 98.513c-1.006 1.039-2.012 2.077-3.018 3.254-.177.208-.295.83-.236 1.108.65 1.869 1.42 3.807 2.307 5.884 2.308-3.461 3.255-6.507.947-10.246zM46.521 37.038c2.308-4.362 4.793-8.585 4.793-14.192-2.84 4.292-5.148 8.584-4.793 14.192zM40.25 22.984c-.06 5.677 2.544 9.83 4.615 14.261.946-3.6-.947-8.93-4.615-14.26zM47.172 145.105c0 2.077-.296 4.084.06 5.746.946 4.153 2.248 8.169 3.372 12.184.828-3.323.237-6.3-.947-9.346-1.124-2.561-1.656-5.4-2.485-8.584zM44.273 145.935c-.888 3.047-1.716 6.231-2.9 9.277-1.005 2.77-1.005 5.33-.473 7.892.474-1.661.71-3.738 1.539-5.4 2.012-3.807 2.189-7.823 1.834-11.769zM45.338 5.538c0-1.315.06-2.977-.06-4.5C45.22.623 44.51 0 44.097 0c-2.959.07-3.906 1.938-2.959 5.123 1.48.208 2.84.277 4.201.415zM50.663 5.192c.118-.554.473-1.523.296-2.284-.178-.762-.77-1.731-1.42-2.008-.888-.485-1.953-.415-3.018-.623-.059 0-.177.277-.177.485-.118 1.73-.237 3.53-.296 4.915 1.598-.277 3.018-.346 4.615-.485zM48.71 159.712c-.887 4.777-1.656 9.484-.473 14.33 1.953-4.707 1.243-9.484.474-14.33zM61.136 61.337c-1.42 2.216-2.959 4.292-4.201 6.508-.65 1.177-.828 2.769-.118 4.153 2.662-1.523 4.319-5.746 4.319-10.66zM43.326 174.043c1.302-4.847.296-9.485-.532-14.192-.592 4.776-1.539 9.553.532 14.192zM30.369 61.337c.236 4.43 1.005 8.238 4.26 10.938.828-1.73.532-3.323-.296-4.638-1.184-2.077-2.544-4.084-3.964-6.3zM21.612 78.921c-5.68 3.739-6.745 11.146-10.059 16.685A2496.728 2496.728 0 0121.612 78.92zM80.01 95.467c-3.372-5.4-4.319-12.807-9.88-16.338 3.254 5.47 6.567 11.008 9.88 16.338zM50.249 173.627c-.237-.07-.473-.07-.71-.138-2.308 5.884.473 12.046-.77 18.069.178 0 .415 0 .592.069.296-6.092.592-12.046.888-18zM25.753 71.79c-2.958 1.316-5.857 4.64-6.212 6.924 1.479-.9 3.017-1.87 4.556-2.839 1.597-.9 2.011-1.869 1.656-4.084zM42.025 190.242h.355c.118-2.838.295-5.607.414-8.515.236-5.538.118-6.577-1.361-8.17.177 5.678.414 11.216.592 16.685zM57.704 143.097c-.118 0-.177-.07-.296-.07-1.006 3.67-2.011 7.34-3.136 11.285 1.006-.83 1.716-1.384 2.426-2.007.414-.416.888-.97.947-1.454.118-2.562.06-5.192.06-7.754zM72.378 78.921c-1.539-3.53-3.846-5.538-6.686-7.338-.178 1.73-.06 3.185 1.065 3.946 1.775 1.108 3.55 2.216 5.62 3.392zM37.173 154.104a457.887 457.887 0 00-2.604-9.622c-.118-.416-.295-.762-.591-1.523v8.792c1.065.761 1.952 1.523 3.195 2.353zM52.912 146.35c-1.302 0-2.249.832-2.249 1.94 0 1.107 1.065 2.63 2.071 2.7.828.068 2.07-1.524 2.07-2.7 0-1.455-1.064-1.732-1.892-1.94zM36.7 149.12c.473.485 1.124 1.454 1.952 1.8.828.346 2.308-1.523 2.19-2.7-.12-1.454-1.066-1.938-2.072-1.87-1.065 0-1.952.555-2.07 2.77zM3.033 100.244c3.432.97 5.858-.208 6.568-3.046-2.545-.485-4.556.761-6.568 3.046zM81.904 97.198c1.065 3.046 3.787 4.223 6.508 2.908-1.834-2.147-3.846-3.323-6.508-2.908zM74.744 93.252c-2.544-5.4-4.97-10.87-7.514-16.269 1.065 6.37 4.438 11.146 7.514 16.269zM43.385 25.892c.77 1.315 1.598 2.7 2.426 4.015.77-1.246 1.539-2.63 2.367-3.946-1.302-1.246-3.313-1.385-4.793-.07zM24.51 77.398l-.354-.207c-2.367 5.123-4.674 10.246-7.041 15.438 2.958-4.846 6.094-9.415 7.396-15.23zM51.55 29.076c.474 3.046 3.492 5.885 7.042 4.431-2.367-1.592-4.615-2.977-7.041-4.43zM32.913 33.576c3.787 1.385 6.863-1.869 7.04-4.43-2.425 1.384-4.674 2.907-7.04 4.43zM77.999 97.198c.118-.07.236-.138.296-.208-2.071-5.261-4.379-10.453-7.87-14.746 2.544 4.916 5.089 9.9 7.574 14.954zM12.973 96.783c.178.138.355.207.533.346 2.544-4.985 4.97-9.9 7.514-14.885-.237-.138-.414-.276-.65-.415-2.427 4.985-4.853 9.97-7.397 14.954zM31.907 60.368c-.06 2.008 1.538 4.638 3.372 5.4.592-2.908-.414-4.57-3.372-5.4zM56.52 66.53c1.302-2.077 2.486-3.947 3.788-6.024-3.314.139-4.97 2.977-3.787 6.023zM22.322 51.853c-2.9 2.7-3.728 15.369-1.065 18.553-2.13-6.507-1.065-12.53 1.065-18.553zM69.242 51.922c2.07 5.954 3.195 11.907 1.006 18.623 2.603-3.323 1.775-15.854-1.006-18.623zM40.9 205.888c.119.138.296.277.415.485.355-.416 1.005-.693 1.065-1.177.236-1.8.355-3.67.473-5.47 0-.346-.355-.692-.592-1.038-.236.277-.65.554-.71.9-.236 2.077-.414 4.223-.65 6.3zM50.19 206.373l.414-.485c-.178-2.077-.355-4.154-.592-6.23-.059-.347-.473-.624-.71-.97-.236.416-.65.83-.591 1.177.118 1.73.295 3.6.532 5.261 0 .485.592.831.947 1.247zM42.439 18.415c1.36 2.354 5.62 2.285 6.686 0h-6.686zM50.9 9.9c.059-2.285-.592-3.739-1.716-3.946-1.243-.277-2.367.83-2.78 3.184 1.656-1.246 3.076-.9 4.496.762zM55.988 60.991c.178.07.355.208.533.277.828-1.87 1.656-3.877 2.603-5.746-.118-.07-.296-.139-.414-.277-3.254 2.63-3.432 2.977-2.722 5.746zM44.983 9.069c-.296-2.146-1.302-3.254-2.603-3.046-1.184.208-1.835 1.454-1.716 3.67 1.301-1.178 2.662-1.8 4.319-.624zM32.558 54.968c.473 2.63 1.183 4.638 2.84 6.23.887-2.7.591-3.322-2.84-6.23zM85.809 107.652l-.355.623c.65 1.73 1.242 3.53 1.952 5.192.178.415.651.623.947.97.06-.555.237-1.109.118-1.593a53.688 53.688 0 00-1.656-4.362c-.178-.346-.71-.484-1.006-.83zM5.518 107.513c-.177 0-.296.07-.473.07-.71 1.8-1.42 3.669-2.071 5.538-.119.346.118.83.177 1.246.296-.277.71-.416.888-.762a62.454 62.454 0 001.775-4.707c.118-.277-.178-.831-.296-1.385zM88.353 102.39c.888.692 1.716 1.316 2.663 1.8.296.139.71-.138 1.124-.208-.06-.415-.06-1.038-.237-1.246-.414-.484-1.006-.83-1.538-1.315-1.065-.9-1.657-.692-2.012.97zM46.64 9.9c.414 1.523 2.189 2.838 3.49 2.284.474-.138.71-1.038 1.243-1.869-1.952-.208-3.254-.346-4.733-.415zM42.439 17.238h6.804c-1.597-1.87-5.443-1.87-6.804 0zM21.08 71.86c2.78-1.177 4.555-3.392 5.443-6.438.177.207.355.484.532.692a120.148 120.148 0 01-5.976 5.746zM44.983 9.9c-1.48.138-2.9.277-4.615.415.296.692.355 1.523.77 1.73 1.123.762 3.253-.553 3.845-2.145zM70.189 72.206l.473-.554c-2.19-1.938-4.379-3.946-6.568-5.884l.592-.692c1.006 3.253 2.84 5.676 5.503 7.13zM3.506 107.167c-.118-.208-.236-.485-.355-.554-.236-.07-.591 0-.71.139-.828 1.523-1.597 3.184-2.426 4.776-.059.139.06.554.237.762.06.07.473.07.533-.07.887-1.66 1.834-3.391 2.721-5.053zM84.803 114.713c.237-.07.414-.138.65-.138.238-2.077-.887-3.947-1.36-5.885-.06-.208-.592-.277-1.242-.485.65 2.354 1.301 4.431 1.952 6.508zM90.897 112.567c.237-.139.533-.346.77-.485-.651-2.007-1.657-3.807-2.781-5.538-.06-.139-.592.208-1.006.346a514.1 514.1 0 013.017 5.677zM6.11 114.644c.177.069.414.069.591.138.533-1.938 1.125-3.946 1.657-5.884 0-.139-.355-.554-.473-.485-.237.139-.533.346-.651.623a60.256 60.256 0 00-1.243 4.362c-.059.346.06.83.119 1.246zM79.419 104.398c.236-.07.473-.07.769-.139-.06-1.592-.118-3.253-.296-4.846 0-.277-.414-.554-.592-.83-.177.276-.591.623-.591.9.236 1.592.473 3.323.71 4.915zM50.13 19.938c-2.307.139-2.958 1.938-3.786 3.946 2.13-.415 2.958-2.008 3.787-3.946zM52.024 10.592c1.302-2.908 1.183-5.33-.118-6.784-1.065 2.215.355 4.223.118 6.784zM52.438 206.234c-.355-2.423-.236-4.846-1.42-6.715 0 2.008.178 4.084.473 6.023 0 .277.592.484.947.692zM61.728 100.66c0-3.808-.178-7.616-1.125-11.216-.177 0-.355.07-.532.07a536.545 536.545 0 001.657 11.145zM11.612 98.306c-.118 2.215-.177 4.084-.236 5.884 1.775-2.63 1.893-4.638.236-5.884zM53.799 96.436c-1.775 1.247-1.834 2.839-.118 4.431.769-1.523 1.301-2.908.118-4.43zM39.658 3.67c-1.361 1.522-1.42 3.253-.355 6.645.237-2.284 1.124-4.292.355-6.646zM38.77 206.165c1.302-.277 2.071-3.808 1.775-6.646-.118-.07-.295-.07-.414-.139-.414 2.077-.887 4.362-1.36 6.785zM44.924 23.815c-.71-2.908-1.302-3.53-3.432-3.808.71 1.939 1.538 3.462 3.432 3.808zM37.646 96.436c-.946 1.593-.591 3.047.355 4.5 1.539-2.007 1.361-3.461-.355-4.5zM52.26 15.161c-.71 2.216-1.301 4.292-1.952 6.3 2.071-1.592 3.136-4.708 1.953-6.3zM29.6 99.898c.118 0 .236 0 .354.07.474-3.462 1.006-6.785 1.48-10.247-.237-.069-.474-.069-.71-.138-.415 3.392-.77 6.784-1.125 10.315z"/><g transform="matrix(.59168 0 0 .6923 -51.52 0)"><path inkscape:connector-curvature="0" d="M156.7 30.9c-.9-2.8-1.7-5.2-2.5-7.5-.2-.5-.6-.9-.9-1.3-.2.5-.7 1-.7 1.4.1 3 1.1 5.6 4.1 7.4zM162.1 288h-.9c-.3 2.8-.6 5.6-.8 8.4 0 .4.6.8 1 1.2.2-.4.7-.8.7-1.2V288zM167.7 288h-1v8.6c0 .3.6.7 1 .9.1.1.8-.5.8-.7-.3-2.8-.5-5.8-.8-8.8zM142.8 85.5c-1.2-2-2.2-3.7-3.4-5.7-1.5 4.1-.7 5.4 3.4 5.7zM186.2 85.5c4.1-.1 4.9-1.7 3.1-5.6-1.1 1.9-2 3.6-3.1 5.6zM171.6 24.9c1-1.3 1.9-2.3 2.5-3.4.2-.4.2-1.3-.1-1.5-.3-.3-1.4-.4-1.5-.2-1 1.4-2.6 2.9-.9 5.1zM102.3 163.8c.4.1.8.2 1.3.3.7-2.2 1.4-4.4 2-6.6.1-.2-.3-.8-.4-.8-.4 0-.9.2-1 .4-.7 2.1-1.3 4.4-1.9 6.7zM225.3 164.1c.3-.1.5-.1.8-.2.5-2.4-.9-6.5-3.1-7.6.8 2.9 1.6 5.3 2.3 7.8zM153.5 225.6c.8-2.5 1.3-4.4 1.8-6.2-1.3.4-2.3.7-3.5 1 .6 1.6 1 3 1.7 5.2zM157.2 24.9c2-1.8.3-3.2-.3-4.6-.2-.3-1.1-.3-1.7-.5-.1.6-.5 1.3-.3 1.7.5 1.2 1.4 2.2 2.3 3.4zM174.4 49.1c-.7-1.8-1.1-3-1.7-4.6-.8 1.7-1.4 3.2-2.3 5.3 1.6-.3 2.7-.6 4-.7zM175.3 225.6c.6-1.9 1.1-3.5 1.6-5.3-1.2-.3-2.3-.6-3.4-.9.6 2.1 1.2 4 1.8 6.2zM159.1 22.4c2.4-.7 2.1-2.3 1.6-4.3-1 .3-2 .6-3.1.9.5 1.4.9 2.4 1.5 3.4zM158.8 49.9c-1-2.1-1.8-3.5-2.7-5.3-.6 1.7-1 2.9-1.5 4.5 1.1.1 2.3.4 4.2.8zM171.5 19.2c-1.1-.3-2.2-.6-3.2-.9-.5 3.1-.5 3.1 1.6 4.1.3-1 .8-1.9 1.6-3.2zM175.7 290c1.2 6.2 2.2 7.7 4.2 6.7-1.3-2.2-2.8-4.4-4.2-6.7zM153.1 291.4l-.6-.3c-1.2 1.9-2.5 4-3.8 5.9.2.2.5.3.7.5 3-1 2.4-4.1 3.7-6.1zM179.5 80.9c.3.4.6.8 1 1.1 1.2-1.1 2.4-2.3 3.8-3.4-.2-.2-.3-.4-.5-.5-1.6.9-3 1.9-4.3 2.8z"/><ellipse cx="160.3" cy="301.7" rx="1.6" ry="2.3"/><ellipse cx="168.2" cy="301.7" rx="1.6" ry="2.3"/><path inkscape:connector-curvature="0" d="M173.9 303.1c-.4.2-.8.1-1-.3l-.7-1.2c-.2-.4-.1-.8.3-1 .4-.2.8-.1 1 .3l.7 1.2c.2.3.1.8-.3 1zM177.3 303.1c-.4.2-.8.1-1-.3l-.7-1.2c-.2-.4-.1-.8.3-1 .4-.2.8-.1 1 .3l.7 1.2c.2.3.1.8-.3 1zM179.8 302.2c-.4.2-.8.1-1-.3l-.7-1.2c-.2-.4-.1-.8.3-1 .4-.2.8-.1 1 .3l.7 1.2c.2.4.1.9-.3 1zM182.1 301.6c-.4.2-.8.1-1-.3l-.7-1.2c-.2-.4-.1-.8.3-1 .4-.2.8-.1 1 .3l.7 1.2c.1.3 0 .8-.3 1zM154.2 303.6c.4.2.8.1 1-.3l.7-1.2c.2-.4.1-.8-.3-1-.4-.2-.8-.1-1 .3l-.7 1.2c-.1.3 0 .8.3 1zM151.4 303.1c.4.2.8.1 1-.3l.7-1.2c.2-.4.1-.8-.3-1-.4-.2-.8-.1-1 .3l-.7 1.2c-.2.3 0 .6.3 1zM148.9 302.2c.4.2.8.1 1-.3l.7-1.2c.2-.4.1-.8-.3-1-.4-.2-.8-.1-1 .3l-.7 1.2c-.2.3-.1.8.3 1zM146.7 301.5c.4.2.8.1 1-.3l.7-1.2c.2-.4.1-.8-.3-1-.4-.2-.8-.1-1 .3l-.7 1.2c-.2.2-.1.7.3 1z"/></g></g><g inkscape:label="Hip Flexors" inkscape:groupmode="layer" fill="red"><path inkscape:connector-curvature="0" d="M37.74 100.377c-.633-1.082-.756-2.356-.323-3.356.116-.267.242-.486.28-.486.037 0 .257.167.489.371.919.81 1.04 1.731.396 3.001-.486.958-.538.987-.842.47zM53.24 100.32c-.53-.667-.736-1.144-.738-1.708-.003-.605.346-1.317.861-1.758l.385-.33.21.26c.263.326.484 1.047.484 1.579 0 .418-.336 1.544-.636 2.127l-.169.33zM48.018 124.844c.1-.858.591-3.475.974-5.18 1.122-5 2.618-9.804 6.121-19.66.94-2.645 1.855-5.221 2.032-5.724l.321-.913.06.636c.14 1.488.02 3.215-.355 5.076-.448 2.223-.766 3.155-4.422 12.952l-2.658 7.123c-.265.713-.853 2.399-1.307 3.747-.6 1.784-.808 2.313-.766 1.943zM42.242 121.353c-4.233-11.398-6.769-18.37-7.277-20.015-.668-2.156-.968-4.163-.968-6.473 0-.862.031-1.567.07-1.567.038 0 .23.469.426 1.04.197.573 1.129 3.227 2.07 5.898 3.49 9.9 4.747 13.86 5.987 18.861.523 2.112 1.386 6.32 1.33 6.49-.017.05-.754-1.854-1.638-4.234z"/></g><g inkscape:label="Quads" inkscape:groupmode="layer" fill="red"><path inkscape:connector-curvature="0" d="M37.525 142.49c-.548-4.396-2.309-14.77-3.795-22.364-.8-4.086-.884-4.868-.877-8.187.004-1.828.057-3.297.156-4.302.237-2.416.65-5.736.713-5.736.031 0 1.436 3.675 3.122 8.167 3.296 8.78 3.352 8.957 3.352 10.666 0 .474-.103 1.832-.229 3.018-.15 1.421-.277 3.496-.37 6.088-.256 7.052-.512 14.182-.512 14.261 0 .043-.303.078-.674.078h-.675zM52.083 144.017c.14-.858.247-3.402.194-4.602-.225-5.105-.455-9.538-.614-11.888l-.295-4.325c-.18-2.665.064-4.439.979-7.1.657-1.911 4.965-13.371 5.198-13.83.14-.274.228-.37.26-.278.025.076.223 1.741.44 3.7.356 3.214.394 3.774.389 5.736-.008 3.256-.296 5.407-1.64 12.258-.785 4-1.332 7.169-2.459 14.246a875.74 875.74 0 01-.98 6.083c-.052.252-.06.254-.783.254h-.73zM41.27 145.841c-.462-.405-.611-.939-.674-2.402-.062-1.46.117-10.984.25-13.276.091-1.585.409-5.434.518-6.29l.06-.463.134.37c.698 1.926 1.602 5.22 2.006 7.308.577 2.985.743 4.966.672 8.049-.088 3.874-.512 6.106-1.283 6.754-.224.189-.373.23-.819.23-.474 0-.586-.035-.864-.28zM48.924 146.036c-.624-.38-1.23-2.159-1.475-4.33-.185-1.635-.209-5.162-.046-6.87.318-3.35 1.058-7.014 2.152-10.659.369-1.23.391-1.276.633-1.276h.25l.064 2.244c.034 1.234.142 4.949.24 8.256.33 11.266.318 10.388.147 11.053-.368 1.432-1.162 2.071-1.965 1.582zM55.014 145.067l-.308-.683.29-2.531c.902-7.859 2.022-14.431 3.237-18.998l.271-1.018-.043.648-.184 2.775c-.565 8.53-1.22 13.437-2.506 18.757-.231.954-.426 1.735-.435 1.734-.008 0-.153-.307-.322-.684zM36.1 144.156c-.588-1.882-1.373-5.505-1.769-8.165-.496-3.329-.988-8.724-1.117-12.257-.048-1.304-.045-1.327.087-.833.074.28.365 1.552.645 2.827 1.392 6.324 2.198 12.156 2.335 16.901.032 1.107.038 2.012.014 2.012s-.112-.218-.195-.485z"/></g><g inkscape:label="Obliques" inkscape:groupmode="layer" fill="red"><path inkscape:connector-curvature="0" d="M35.567 90.697c-1.012-.653-2.292-1.904-2.759-2.696-.946-1.605-1.212-3.162-.895-5.244.206-1.355.325-3.136.409-6.158.083-2.99.135-3.304.595-3.606.204-.133.266-.135.54-.019.707.3 2.114 1.873 2.597 2.903.227.485.296.821.443 2.174.241 2.219.42 4.437.69 8.54.126 1.933.249 3.681.272 3.885.041.365.036.373-.411.578-.25.115-.487.208-.529.208-.041 0-.47-.254-.952-.565zM33.846 71.442c-1.564-1.633-2.414-3.374-2.947-6.037-.264-1.321-.442-2.81-.4-3.35l.029-.39 1.341 2.092c1.858 2.895 2.74 4.412 2.977 5.117.278.826.275 1.865-.007 2.706-.115.344-.221.625-.235.625-.015 0-.355-.344-.758-.763zM34.67 65.362c-1.284-.859-2.358-2.55-2.632-4.15-.062-.362-.089-.682-.06-.71.03-.03.338.054.687.185 1.732.652 2.602 1.724 2.692 3.316.023.415.008.977-.034 1.249l-.077.494zM34.86 60.528c-.945-1.17-1.518-2.38-1.93-4.079-.33-1.363-.327-1.37.346-.79 1.798 1.551 2.479 2.52 2.479 3.526 0 .506-.203 1.524-.36 1.805-.045.08-.218-.07-.535-.462zM32.166 59.02c-1.376-.3-1.772-.993-1.463-2.566.239-1.22.21-1.24 1.25.839.514 1.027.904 1.864.865 1.86a17.592 17.592 0 01-.652-.133zM54.157 91.299c-.224-.27-.196-1.237.187-6.374.63-8.442.644-8.555 1.142-9.566.495-1.008 1.931-2.246 2.76-2.38.406-.066.78.216.91.687.06.213.097 2.046.098 4.83.002 3.501.032 4.649.136 5.227.354 1.958.028 3.417-1.097 4.913-.552.736-2.017 2.003-3.018 2.613-.386.235-.944.26-1.118.05zM56.697 71.59c-.265-.634-.35-1.446-.23-2.179.13-.783.31-1.214.952-2.289.87-1.457 3.633-5.571 3.669-5.464.065.195-.179 2.535-.365 3.497-.55 2.85-1.885 5.358-3.45 6.479l-.429.307zM56.375 65.942c-.074-.256-.128-.856-.128-1.416 0-.898.023-1.018.295-1.593.553-1.17 1.532-1.944 2.846-2.248.344-.08.664-.132.711-.117.07.024-3.286 5.494-3.524 5.744-.039.041-.129-.125-.2-.37zM59.4 57.716c.389-.808.792-1.657.895-1.885l.19-.416.172.506c.69 2.032.258 2.915-1.568 3.202l-.395.062zM56.23 61.082c-.25-.116-.493-1.105-.49-2.002.003-1.022.373-1.589 1.831-2.81 1.171-.981 1.088-.93 1.305-.813.187.1.184.115-.168.816-.197.392-.762 1.63-1.256 2.749-.494 1.12-.926 2.062-.96 2.094-.033.033-.15.017-.261-.034zM55.016 56.39c-.263-.355-.26-.376.097-.66.92-.734 2.044-1.565 2.118-1.565.047 0 .11.063.139.14.036.095-.293.501-.994 1.226-.576.597-1.072 1.097-1.102 1.11-.03.014-.146-.099-.258-.25z"/></g><g inkscape:label="Trapezius" inkscape:groupmode="layer" fill="red"><path inkscape:connector-curvature="0" d="M54.461 33.015c-1.14-.695-2.39-2.172-2.39-2.821 0-.243.072-.44.161-.44.09 0 1.505.867 3.146 1.929l2.984 1.929-1.452.005c-.863.004-1.856-.24-2.449-.602zM34.812 32.55c3.253-2.175 4.674-2.895 4.674-2.368 0 .683-1.508 2.404-2.603 2.97-.503.26-1.536.473-2.297.473h-1.383z"/></g><g inkscape:label="Bicep" inkscape:groupmode="layer" fill="red"><path inkscape:connector-curvature="0" d="M21.587 66.23c-.271-.523-.493-1.319-.493-1.767 0-1.015 2.174-11.706 2.576-12.665.271-.65 2.799-2.04 3.707-2.04.523 0 1.329.959 1.54 1.832.208.855-.788 6.572-1.55 8.901-1.817 5.55-4.5 8.214-5.78 5.74zM67.585 66.671c-2.151-1.81-4.69-8.817-4.873-13.45-.08-2.023-.03-2.265.638-3.066l.611-.732 1.811.8c2.285 1.011 2.709 1.897 3.855 8.055 1.124 6.041 1.064 8.094-.262 8.98-.546.365-.716.309-1.78-.587z"/><path inkscape:connector-curvature="0" d="M21.551 66.161c-.663-1.282-.502-2.856.98-9.62 1.19-5.427 1.328-5.669 3.668-6.441 1.119-.37 1.411-.37 1.856 0 .982.815 1.11 1.809.61 4.741-1.525 8.944-5.265 14.895-7.114 11.32z"/><path inkscape:connector-curvature="0" d="M21.549 66.157c-.387-.748-.477-1.467-.334-2.662.373-3.12 2.392-11.87 2.829-12.26.947-.849 3.22-1.61 3.773-1.266 1.189.737 1.374 1.786.855 4.833-1.533 8.989-5.268 14.943-7.123 11.355z"/><path inkscape:connector-curvature="0" d="M21.549 66.157c-.387-.748-.477-1.467-.334-2.662.373-3.12 2.392-11.87 2.829-12.26.947-.849 3.22-1.61 3.773-1.266 1.25.775 1.377 1.753.707 5.474-1.572 8.725-5.156 14.231-6.975 10.714z"/><path inkscape:connector-curvature="0" d="M21.587 66.23c-.271-.523-.493-1.319-.493-1.767 0-1.015 2.174-11.706 2.576-12.665.161-.387.99-1.011 1.84-1.387 3.17-1.403 3.934-.097 2.995 5.128-.663 3.693-1.333 5.915-2.489 8.255-1.628 3.297-3.462 4.306-4.43 2.436zM67.627 66.707c-2.113-1.778-4.256-7.335-4.835-12.534-.218-1.955-.18-2.718.165-3.388.719-1.393.866-1.423 2.791-.572 2.32 1.026 2.751 1.922 3.886 8.068 1.116 6.051 1.055 8.093-.27 8.977-.543.363-.715.308-1.737-.551z"/><path inkscape:connector-curvature="0" d="M67.585 66.671c-2.151-1.81-4.69-8.817-4.873-13.45-.08-2.015-.029-2.266.615-3.037.53-.635.698-.667 1.698-.323 2.909 1 3.388 1.886 4.633 8.572 1.093 5.869 1.024 7.946-.293 8.825-.546.365-.716.309-1.78-.587z"/></g><g inkscape:label="Deltoid" inkscape:groupmode="layer" fill="red"><path inkscape:connector-curvature="0" d="M68.886 47.31c-.954-2.694-3.055-6.599-4.552-8.456-.862-1.07-1.48-2.03-1.376-2.135.356-.355 1.756-.192 2.868.336 2.137 1.014 3.766 5.164 3.602 9.178l-.095 2.34zM21.861 46.37c.523-6.427 2.596-9.84 5.977-9.84 1.218 0 1.255.293.167 1.314-1.226 1.15-3.479 4.912-4.812 8.034-.643 1.504-1.252 2.811-1.355 2.904-.103.093-.092-.992.023-2.412z"/></g><g inkscape:label="Abs" inkscape:groupmode="layer" fill="red"><path inkscape:connector-curvature="0" d="M47.552 98.381c-.205-.428-.421-2.487-.538-5.126-.158-3.569-.102-5.142.294-8.252.566-4.446.804-4.868 3.11-5.539 1.646-.478 2.423-.317 2.64.547.427 1.7-1.062 11.285-2.422 15.59-.586 1.853-.806 2.216-1.707 2.812l-1.034.685zM42.549 98.403c-.729-.63-.971-1.188-1.657-3.811-1.593-6.093-2.197-9.393-2.242-12.26-.052-3.23.076-3.425 2.047-3.13 1.389.21 2.619 1.092 3.33 2.392.402.734.458 1.741.452 8.187-.006 6.832-.044 7.42-.542 8.355l-.535 1.004zM42.347 77.77c-.294-.118-1.166-.303-1.94-.409-2.009-.275-2.609-.846-2.582-2.457.042-2.564 1.54-4.096 4.003-4.098 1.667-.002 2.215.376 2.532 1.743.28 1.208.331 3.972.09 4.87-.17.638-1.038.783-2.103.352zM47.024 75.096c0-2.995.037-3.217.594-3.608.768-.538 3.195-.544 4.226-.01 1.342.694 2.08 2.871 1.59 4.692-.152.563-.48 1.078-.736 1.155-.486.144-5.128.961-5.473.962-.11.001-.2-1.435-.2-3.19zM50.232 69.291c-.515-.05-1.45-.16-2.08-.242l-1.145-.15.075-2.846c.074-2.763.097-2.858.781-3.241 2.035-1.14 5.817 2.075 5.837 4.964.012 1.74-.205 1.835-3.468 1.515zM37.928 68.776c-.826-2.172 1.086-5.144 3.94-6.125 2-.688 2.71.363 2.736 4.048l.015 2.174-1.136.153a86.52 86.52 0 01-3.202.328l-2.066.176zM37.939 61.116c.002-2.177 1.283-3.924 3.582-4.884 1.336-.559 2.196-.495 2.682.2.573.818.543 2.941-.052 3.631-.372.432-5.353 2.456-6.044 2.456-.093 0-.17-.631-.168-1.403zM50.25 61.474c-1.873-.68-2.855-1.18-2.989-1.52-.3-.764-.274-3.012.04-3.6.734-1.371 4.605.265 5.734 2.425.49.936.643 3.76.203 3.725-.11-.009-1.455-.472-2.989-1.03z"/></g><g inkscape:label="Pecs" inkscape:groupmode="layer"><path inkscape:connector-curvature="0" d="M48.46 54.116c-.46-.2-.938-.526-1.06-.724-.344-.553-.417-12.501-.083-13.524.383-1.173 1.243-1.364 2.712-.6 1.72.894 5.748 3.773 7.553 5.399.882.794 2.336 2.049 3.232 2.787l1.63 1.343-2.164 1.612c-1.19.886-2.825 1.983-3.634 2.438-2.686 1.51-6.334 2.076-8.186 1.27z" fill="red" inkscape:label="Left pec" inkscape:groupmode="layer"/><path inkscape:connector-curvature="0" d="M37.257 53.76c-1.183-.4-2.846-1.15-3.696-1.664-1.631-.987-4.403-3.335-4.176-3.537.901-.805 7.231-6.004 8.485-6.969 2.225-1.712 4.747-2.948 5.585-2.738.356.09.747.43.868.757.121.326.195 3.518.164 7.092-.062 7.232-.032 7.113-1.902 7.546-1.729.402-3.072.279-5.328-.486z" fill="red"/><path inkscape:connector-curvature="0" d="M37.67 53.745c-.808-.27-2.192-.863-3.074-1.316-1.787-.919-4.81-3.265-4.81-3.733 0-.44 8.245-7.14 10.325-8.388.974-.586 2.196-1.133 2.713-1.217 1.515-.246 1.582.093 1.482 7.538-.077 5.7-.145 6.575-.542 6.971-.694.694-4.206.777-6.094.145z" fill="red"/><path inkscape:connector-curvature="0" d="M37.67 53.745c-.808-.27-2.192-.863-3.074-1.316-1.783-.917-4.81-3.264-4.81-3.73 0-.427 8.5-7.352 10.415-8.486.878-.519 2.01-1.022 2.515-1.116 1.626-.305 1.68-.05 1.586 7.444-.074 5.787-.14 6.662-.538 7.06-.694.693-4.206.776-6.094.144z" fill="red"/></g></g></svg>